<mxfile host="app.diagrams.net" modified="2020-12-10T01:07:17.046Z" agent="5.0 (Macintosh; Intel Mac OS X 10_15_7) AppleWebKit/537.36 (KHTML, like Gecko) Chrome/87.0.4280.67 Safari/537.36" etag="1PTRa8EcHUyvcXOWTxwK" version="13.10.0" type="github" pages="2">
  <diagram id="vErCu-XSn-gXrVOKf6u0" name="Page-1">
    <mxGraphModel dx="1106" dy="591" grid="1" gridSize="10" guides="1" tooltips="1" connect="1" arrows="1" fold="1" page="1" pageScale="1" pageWidth="1169" pageHeight="827" math="0" shadow="0">
      <root>
        <mxCell id="0" />
        <mxCell id="1" parent="0" />
        <mxCell id="kfa0dBnzxTjsRcn_ZWiO-33" style="edgeStyle=orthogonalEdgeStyle;rounded=0;orthogonalLoop=1;jettySize=auto;html=1;exitX=1;exitY=0.5;exitDx=0;exitDy=0;" edge="1" parent="1" source="kfa0dBnzxTjsRcn_ZWiO-3" target="kfa0dBnzxTjsRcn_ZWiO-20">
          <mxGeometry relative="1" as="geometry">
            <mxPoint x="680" y="70" as="sourcePoint" />
          </mxGeometry>
        </mxCell>
        <mxCell id="kfa0dBnzxTjsRcn_ZWiO-1" value="API Server" style="rounded=0;whiteSpace=wrap;html=1;fillColor=#d5e8d4;strokeColor=#82b366;" vertex="1" parent="1">
          <mxGeometry x="447.5" y="240" width="110" height="80" as="geometry" />
        </mxCell>
        <mxCell id="XGBGoHMclb0KZFmQdPqs-2" style="edgeStyle=orthogonalEdgeStyle;rounded=0;orthogonalLoop=1;jettySize=auto;html=1;entryX=0.75;entryY=0;entryDx=0;entryDy=0;" edge="1" parent="1" source="kfa0dBnzxTjsRcn_ZWiO-3" target="kfa0dBnzxTjsRcn_ZWiO-11">
          <mxGeometry relative="1" as="geometry" />
        </mxCell>
        <mxCell id="kfa0dBnzxTjsRcn_ZWiO-3" value="CLI" style="rounded=0;whiteSpace=wrap;html=1;" vertex="1" parent="1">
          <mxGeometry x="585" y="149.5" width="90" height="60.5" as="geometry" />
        </mxCell>
        <mxCell id="kfa0dBnzxTjsRcn_ZWiO-5" style="edgeStyle=orthogonalEdgeStyle;rounded=0;orthogonalLoop=1;jettySize=auto;html=1;entryX=0.25;entryY=0;entryDx=0;entryDy=0;exitX=1;exitY=0.5;exitDx=0;exitDy=0;" edge="1" parent="1" source="kfa0dBnzxTjsRcn_ZWiO-6" target="kfa0dBnzxTjsRcn_ZWiO-1">
          <mxGeometry relative="1" as="geometry">
            <mxPoint x="350" y="139.5" as="sourcePoint" />
          </mxGeometry>
        </mxCell>
        <mxCell id="kfa0dBnzxTjsRcn_ZWiO-6" value="Web UI" style="rounded=0;whiteSpace=wrap;html=1;" vertex="1" parent="1">
          <mxGeometry x="317.5" y="150" width="90" height="60" as="geometry" />
        </mxCell>
        <mxCell id="XGBGoHMclb0KZFmQdPqs-9" style="edgeStyle=orthogonalEdgeStyle;rounded=0;orthogonalLoop=1;jettySize=auto;html=1;" edge="1" parent="1" source="kfa0dBnzxTjsRcn_ZWiO-10">
          <mxGeometry relative="1" as="geometry">
            <mxPoint x="310" y="320" as="targetPoint" />
          </mxGeometry>
        </mxCell>
        <mxCell id="XGBGoHMclb0KZFmQdPqs-11" style="edgeStyle=orthogonalEdgeStyle;rounded=0;orthogonalLoop=1;jettySize=auto;html=1;entryX=0.25;entryY=1;entryDx=0;entryDy=0;" edge="1" parent="1" source="kfa0dBnzxTjsRcn_ZWiO-10" target="kfa0dBnzxTjsRcn_ZWiO-53">
          <mxGeometry relative="1" as="geometry" />
        </mxCell>
        <mxCell id="kfa0dBnzxTjsRcn_ZWiO-10" value="Supervisor" style="rounded=0;whiteSpace=wrap;html=1;fillColor=#dae8fc;strokeColor=#6c8ebf;" vertex="1" parent="1">
          <mxGeometry x="250" y="370" width="120" height="60" as="geometry" />
        </mxCell>
        <mxCell id="kfa0dBnzxTjsRcn_ZWiO-40" style="edgeStyle=orthogonalEdgeStyle;rounded=0;orthogonalLoop=1;jettySize=auto;html=1;entryX=1;entryY=0.5;entryDx=0;entryDy=0;" edge="1" parent="1" source="kfa0dBnzxTjsRcn_ZWiO-11" target="kfa0dBnzxTjsRcn_ZWiO-1">
          <mxGeometry relative="1" as="geometry" />
        </mxCell>
        <mxCell id="kfa0dBnzxTjsRcn_ZWiO-41" style="edgeStyle=orthogonalEdgeStyle;rounded=0;orthogonalLoop=1;jettySize=auto;html=1;" edge="1" parent="1" source="kfa0dBnzxTjsRcn_ZWiO-11" target="kfa0dBnzxTjsRcn_ZWiO-10">
          <mxGeometry relative="1" as="geometry" />
        </mxCell>
        <mxCell id="kfa0dBnzxTjsRcn_ZWiO-11" value="Factory" style="rounded=0;whiteSpace=wrap;html=1;fillColor=#e1d5e7;strokeColor=#9673a6;" vertex="1" parent="1">
          <mxGeometry x="540" y="370" width="120" height="60" as="geometry" />
        </mxCell>
        <mxCell id="kfa0dBnzxTjsRcn_ZWiO-54" style="edgeStyle=orthogonalEdgeStyle;rounded=0;orthogonalLoop=1;jettySize=auto;html=1;exitX=0.5;exitY=1;exitDx=0;exitDy=0;entryX=1;entryY=0.5;entryDx=0;entryDy=0;" edge="1" parent="1" source="kfa0dBnzxTjsRcn_ZWiO-20" target="kfa0dBnzxTjsRcn_ZWiO-11">
          <mxGeometry relative="1" as="geometry" />
        </mxCell>
        <mxCell id="kfa0dBnzxTjsRcn_ZWiO-20" value="" style="rounded=0;whiteSpace=wrap;html=1;align=left;strokeColor=#d6b656;fillColor=#fff2cc;" vertex="1" parent="1">
          <mxGeometry x="710" y="220" width="150" height="100" as="geometry" />
        </mxCell>
        <mxCell id="XGBGoHMclb0KZFmQdPqs-1" style="edgeStyle=orthogonalEdgeStyle;rounded=0;orthogonalLoop=1;jettySize=auto;html=1;" edge="1" parent="1" source="kfa0dBnzxTjsRcn_ZWiO-28" target="kfa0dBnzxTjsRcn_ZWiO-3">
          <mxGeometry relative="1" as="geometry" />
        </mxCell>
        <mxCell id="XGBGoHMclb0KZFmQdPqs-17" style="edgeStyle=orthogonalEdgeStyle;rounded=0;orthogonalLoop=1;jettySize=auto;html=1;entryX=0.5;entryY=0;entryDx=0;entryDy=0;" edge="1" parent="1" source="kfa0dBnzxTjsRcn_ZWiO-28" target="kfa0dBnzxTjsRcn_ZWiO-6">
          <mxGeometry relative="1" as="geometry" />
        </mxCell>
        <mxCell id="kfa0dBnzxTjsRcn_ZWiO-28" value="" style="aspect=fixed;perimeter=ellipsePerimeter;html=1;align=center;shadow=0;dashed=0;spacingTop=3;image;image=img/lib/active_directory/user.svg;fillColor=none;" vertex="1" parent="1">
          <mxGeometry x="493.25" y="60" width="18.5" height="50" as="geometry" />
        </mxCell>
        <mxCell id="kfa0dBnzxTjsRcn_ZWiO-29" value="Catalog File" style="text;html=1;strokeColor=none;fillColor=none;align=center;verticalAlign=middle;whiteSpace=wrap;rounded=0;" vertex="1" parent="1">
          <mxGeometry x="694.25" y="160" width="80" height="16" as="geometry" />
        </mxCell>
        <mxCell id="kfa0dBnzxTjsRcn_ZWiO-31" value="OperatorHub" style="rounded=0;whiteSpace=wrap;html=1;fillColor=none;" vertex="1" parent="1">
          <mxGeometry x="730" y="265" width="110" height="30" as="geometry" />
        </mxCell>
        <mxCell id="kfa0dBnzxTjsRcn_ZWiO-35" value="RBAC" style="text;html=1;strokeColor=none;fillColor=none;align=center;verticalAlign=middle;whiteSpace=wrap;rounded=0;" vertex="1" parent="1">
          <mxGeometry x="565" y="247.5" width="40" height="20" as="geometry" />
        </mxCell>
        <mxCell id="kfa0dBnzxTjsRcn_ZWiO-44" value="Operator Package" style="text;html=1;strokeColor=none;fillColor=none;align=center;verticalAlign=middle;whiteSpace=wrap;rounded=0;" vertex="1" parent="1">
          <mxGeometry x="673.5" y="379" width="121.5" height="16" as="geometry" />
        </mxCell>
        <mxCell id="kfa0dBnzxTjsRcn_ZWiO-45" value="Websocket" style="text;html=1;strokeColor=none;fillColor=none;align=center;verticalAlign=middle;whiteSpace=wrap;rounded=0;" vertex="1" parent="1">
          <mxGeometry x="407.5" y="160" width="80" height="20" as="geometry" />
        </mxCell>
        <mxCell id="kfa0dBnzxTjsRcn_ZWiO-48" value="...&amp;nbsp;" style="rounded=0;whiteSpace=wrap;html=1;fillColor=none;" vertex="1" parent="1">
          <mxGeometry x="730" y="230" width="110" height="30" as="geometry" />
        </mxCell>
        <mxCell id="kfa0dBnzxTjsRcn_ZWiO-49" value="Operator Package" style="text;html=1;strokeColor=none;fillColor=none;align=center;verticalAlign=middle;whiteSpace=wrap;rounded=0;" vertex="1" parent="1">
          <mxGeometry x="407.5" y="379" width="115" height="15" as="geometry" />
        </mxCell>
        <mxCell id="kfa0dBnzxTjsRcn_ZWiO-51" value="Install/Update/Remove&lt;br&gt;Scaling/Monitoring" style="text;html=1;strokeColor=none;fillColor=none;align=center;verticalAlign=middle;whiteSpace=wrap;rounded=0;" vertex="1" parent="1">
          <mxGeometry x="170" y="340" width="140" height="30" as="geometry" />
        </mxCell>
        <mxCell id="kfa0dBnzxTjsRcn_ZWiO-53" value="" style="rounded=0;whiteSpace=wrap;html=1;strokeColor=#d6b656;fillColor=#fff2cc;" vertex="1" parent="1">
          <mxGeometry x="140" y="240" width="100" height="80" as="geometry" />
        </mxCell>
        <mxCell id="kfa0dBnzxTjsRcn_ZWiO-57" value="Operator Registry" style="text;html=1;strokeColor=none;fillColor=none;align=center;verticalAlign=middle;whiteSpace=wrap;rounded=0;" vertex="1" parent="1">
          <mxGeometry x="735" y="295" width="100" height="25" as="geometry" />
        </mxCell>
        <mxCell id="kfa0dBnzxTjsRcn_ZWiO-59" style="edgeStyle=orthogonalEdgeStyle;rounded=0;orthogonalLoop=1;jettySize=auto;html=1;" edge="1" parent="1" source="kfa0dBnzxTjsRcn_ZWiO-58">
          <mxGeometry relative="1" as="geometry">
            <mxPoint x="470" y="400" as="targetPoint" />
          </mxGeometry>
        </mxCell>
        <mxCell id="kfa0dBnzxTjsRcn_ZWiO-58" value="" style="aspect=fixed;perimeter=ellipsePerimeter;html=1;align=center;shadow=0;dashed=0;spacingTop=3;image;image=img/lib/active_directory/user.svg;strokeColor=#000000;fillColor=none;" vertex="1" parent="1">
          <mxGeometry x="429" y="530" width="18.5" height="50" as="geometry" />
        </mxCell>
        <mxCell id="kfa0dBnzxTjsRcn_ZWiO-61" value="Customize" style="text;html=1;strokeColor=none;fillColor=none;align=center;verticalAlign=middle;whiteSpace=wrap;rounded=0;" vertex="1" parent="1">
          <mxGeometry x="397.13" y="440" width="74.25" height="20" as="geometry" />
        </mxCell>
        <mxCell id="XGBGoHMclb0KZFmQdPqs-3" value="Operator" style="rounded=0;whiteSpace=wrap;html=1;strokeColor=#000000;fillColor=none;" vertex="1" parent="1">
          <mxGeometry x="150" y="265" width="80" height="22.5" as="geometry" />
        </mxCell>
        <mxCell id="XGBGoHMclb0KZFmQdPqs-5" value="Operator" style="rounded=0;whiteSpace=wrap;html=1;strokeColor=#000000;fillColor=none;" vertex="1" parent="1">
          <mxGeometry x="150" y="290" width="80" height="20" as="geometry" />
        </mxCell>
        <mxCell id="XGBGoHMclb0KZFmQdPqs-13" value="" style="rounded=0;whiteSpace=wrap;html=1;strokeColor=#d6b656;fillColor=#fff2cc;" vertex="1" parent="1">
          <mxGeometry x="260" y="260" width="100" height="57.5" as="geometry" />
        </mxCell>
        <mxCell id="XGBGoHMclb0KZFmQdPqs-14" value="Operator" style="rounded=0;whiteSpace=wrap;html=1;strokeColor=#000000;fillColor=none;" vertex="1" parent="1">
          <mxGeometry x="270" y="290" width="80" height="20" as="geometry" />
        </mxCell>
        <mxCell id="XGBGoHMclb0KZFmQdPqs-15" value="Namespace A" style="text;html=1;strokeColor=none;fillColor=none;align=center;verticalAlign=middle;whiteSpace=wrap;rounded=0;" vertex="1" parent="1">
          <mxGeometry x="145" y="215" width="90" height="20" as="geometry" />
        </mxCell>
        <mxCell id="XGBGoHMclb0KZFmQdPqs-16" value="Namespace B" style="text;html=1;strokeColor=none;fillColor=none;align=center;verticalAlign=middle;whiteSpace=wrap;rounded=0;" vertex="1" parent="1">
          <mxGeometry x="265" y="235" width="90" height="20" as="geometry" />
        </mxCell>
        <mxCell id="XGBGoHMclb0KZFmQdPqs-21" value="......" style="text;html=1;strokeColor=none;fillColor=none;align=center;verticalAlign=middle;whiteSpace=wrap;rounded=0;" vertex="1" parent="1">
          <mxGeometry x="170" y="245" width="40" height="20" as="geometry" />
        </mxCell>
        <mxCell id="XGBGoHMclb0KZFmQdPqs-23" value="......" style="text;html=1;strokeColor=none;fillColor=none;align=center;verticalAlign=middle;whiteSpace=wrap;rounded=0;" vertex="1" parent="1">
          <mxGeometry x="290" y="266.25" width="40" height="20" as="geometry" />
        </mxCell>
        <mxCell id="XGBGoHMclb0KZFmQdPqs-24" value="&lt;font style=&quot;font-size: 13px&quot;&gt;&lt;br&gt;&lt;br&gt;&lt;br&gt;&lt;br&gt;&lt;br&gt;&lt;br&gt;&lt;br&gt;&lt;br&gt;&lt;br&gt;&lt;br&gt;&lt;br&gt;&lt;br&gt;&lt;br&gt;&lt;br&gt;&lt;br&gt;&lt;br&gt;&lt;br&gt;Kubernetes Cluster&lt;/font&gt;" style="rounded=0;whiteSpace=wrap;html=1;shadow=0;fillOpacity=10;fillColor=#bac8d3;strokeColor=#23445d;align=right;" vertex="1" parent="1">
          <mxGeometry x="110" y="210" width="770" height="280" as="geometry" />
        </mxCell>
      </root>
    </mxGraphModel>
  </diagram>
  <diagram id="QyEyMzm-IfMS6gwbFKOA" name="Page-2">
    <mxGraphModel dx="786" dy="491" grid="1" gridSize="10" guides="1" tooltips="1" connect="1" arrows="1" fold="1" page="1" pageScale="1" pageWidth="1169" pageHeight="827" math="0" shadow="0">
      <root>
        <mxCell id="1ELLysNqT5oGYkqdU9zu-0" />
        <mxCell id="1ELLysNqT5oGYkqdU9zu-1" parent="1ELLysNqT5oGYkqdU9zu-0" />
      </root>
    </mxGraphModel>
  </diagram>
</mxfile>
